<?xml version="1.0" encoding="UTF-8"?>
<svg xmlns="http://www.w3.org/2000/svg" xmlns:xlink="http://www.w3.org/1999/xlink" width="0" height="0">
    <symbol id="Frame 30" width="16" height="16" fill="none">
        <g clip-path="url(#a)">
            <path fill="#fff" d="M0 0h16v16H0z" />
            <path fill="#ffe550"
                d="M6.778 3.228c.506-.991 1.92-.991 2.426 0l.64 1.255c.199.388.57.658 1 .726l1.388.22c1.099.176 1.536 1.525.75 2.313l-.991.992c-.308.309-.45.746-.383 1.178l.22 1.386c.173 1.1-.972 1.934-1.963 1.43l-1.257-.64a1.36 1.36 0 0 0-1.233 0l-1.257.64c-.991.504-2.136-.33-1.962-1.43l.218-1.386a1.37 1.37 0 0 0-.382-1.178l-.99-.992c-.787-.788-.35-2.137.75-2.312l1.387-.22c.43-.07.801-.34 1-.727z" />
            <path fill="#bbf330" fill-rule="evenodd"
                d="M8 16A8 8 0 1 0 8 0a8 8 0 0 0 0 16m0-.853A7.148 7.148 0 1 0 8 .853a7.148 7.148 0 1 0 0 14.294"
                clip-rule="evenodd" />
        </g>
        <defs>
            <clipPath>
                <path fill="#fff" d="M0 0h16v16H0z" />
            </clipPath>
        </defs>
    </symbol>

    <symbol id="touch" width="32" height="32" fill="none">
        <path fill="#7eb101"
            d="M15.5 1.333q3.034 0 5.184 2.117t2.15 5.15q0 1.733-.75 3.267a7.4 7.4 0 0 1-2.117 2.6h-1.133V12.8a5.15 5.15 0 0 0 1.483-1.867 5.4 5.4 0 0 0 .517-2.333q0-2.2-1.567-3.733Q17.7 3.333 15.5 3.333t-3.766 1.534T10.167 8.6q0 1.233.517 2.333a5.15 5.15 0 0 0 1.483 1.867v2.4a7.25 7.25 0 0 1-2.933-2.733A7.34 7.34 0 0 1 8.167 8.6q0-3.033 2.15-5.15T15.5 1.333m-1.266 28q-.567 0-1.067-.216a2.8 2.8 0 0 1-.867-.584l-6.866-6.866L7.3 19.733q.466-.466 1.05-.716a1.83 1.83 0 0 1 1.217-.084l2.6.6V8.667q0-1.401.967-2.367.966-.966 2.366-.967 1.401 0 2.367.967.966.966.967 2.367V14.4h.866q.166 0 .3.067.135.066.3.133l4.934 2.4q.8.367 1.183 1.183t.217 1.684l-1.2 7.266a2.52 2.52 0 0 1-.934 1.584 2.7 2.7 0 0 1-1.733.616zm-.267-2h9.367l1.433-8.3-6.1-3.033h-1.833V8.667q0-.6-.367-.967-.366-.366-.967-.367-.6 0-.966.367-.367.367-.367.967v13.3l-5.133-1.1-.767.766zm9.367 0h-9.367z" />
    </symbol>

    <symbol id="rocket" width="32" height="32" fill="none">
        <path fill="#7eb101"
            d="m7.233 13.633 3.534 1.5q.6-1.2 1.283-2.366.684-1.167 1.45-2.234L10.867 10zm5.134 2.7 4.433 4.434a26 26 0 0 0 3.567-1.967q1.665-1.1 2.7-2.133 2.7-2.7 3.966-5.534t1.367-6.4q-3.567.1-6.4 1.367t-5.533 3.967q-1.034 1.034-2.134 2.7a26 26 0 0 0-1.966 3.566m7.633-3.2q-.666-.666-.667-1.65 0-.982.667-1.65.666-.666 1.65-.666t1.65.666.667 1.65q0 .984-.667 1.65-.666.667-1.65.667T20 13.133M19.5 25.9l3.633-3.633-.533-2.634q-1.067.768-2.233 1.45-1.167.684-2.367 1.284zM30.367 2.767q.3 4.533-1.134 8.266-1.433 3.734-4.733 7.034l-.067.066-.066.067.733 3.667q.1.5-.05.966-.15.468-.517.834l-5.7 5.733L16 22.8l-5.667-5.667-6.6-2.833 5.734-5.7q.366-.367.833-.517t.967-.05l3.666.734a.3.3 0 0 1 .067-.05.3.3 0 0 0 .067-.05q3.3-3.3 7.033-4.75t8.267-1.15m-24.4 18.4Q7.132 20 8.817 19.983q1.683-.015 2.85 1.15 1.165 1.167 1.15 2.85-.017 1.685-1.184 2.85-.866.867-2.683 1.434T3.5 29.333Q4 25.7 4.55 23.867t1.417-2.7m1.4 1.433q-.467.5-.834 1.567T5.9 26.9q1.667-.267 2.733-.633Q9.7 25.9 10.2 25.433q.633-.566.65-1.416a2.03 2.03 0 0 0-.583-1.484 2.03 2.03 0 0 0-1.484-.583 1.88 1.88 0 0 0-1.416.65" />
    </symbol>

    <symbol id="burger_menu" width="28" height="28" fill="none">
        <path fill="#7eb101"
            d="M2.333 7A1.167 1.167 0 0 1 3.5 5.833h21a1.167 1.167 0 0 1 0 2.334h-21A1.167 1.167 0 0 1 2.333 7m0 7.037A1.167 1.167 0 0 1 3.5 12.871h21a1.167 1.167 0 1 1 0 2.333h-21a1.167 1.167 0 0 1-1.167-1.167M3.5 19.908a1.167 1.167 0 0 0 0 2.333h21a1.167 1.167 0 1 0 0-2.333z" />
    </symbol>

    <symbol id="arrow-right" width="56" height="48" fill="none">
        <g filter="url(#a)">
            <rect width="40" height="48" x="52" fill="#fff" rx="8" transform="rotate(90 52 0)" />
            <path fill="#2c2c2c"
                d="M38.55 19.095 24.617 5.82a1.25 1.25 0 0 0-1.725 0l-.015.015a1.15 1.15 0 0 0 0 1.667l13.12 12.5-13.12 12.496a1.15 1.15 0 0 0 0 1.667l.015.015a1.25 1.25 0 0 0 1.725 0L38.55 20.905a1.25 1.25 0 0 0 0-1.81" />
        </g>
        <defs>
            <filter width="56" height="48" x="0" y="0" color-interpolation-filters="sRGB" filterUnits="userSpaceOnUse">
                <feFlood flood-opacity="0" result="BackgroundImageFix" />
                <feColorMatrix in="SourceAlpha" result="hardAlpha" values="0 0 0 0 0 0 0 0 0 0 0 0 0 0 0 0 0 0 127 0" />
                <feOffset dy="4" />
                <feGaussianBlur stdDeviation="2" />
                <feComposite in2="hardAlpha" operator="out" />
                <feColorMatrix values="0 0 0 0 0 0 0 0 0 0 0 0 0 0 0 0 0 0 0.16 0" />
                <feBlend in2="BackgroundImageFix" result="effect1_dropShadow_480_6540" />
                <feBlend in="SourceGraphic" in2="effect1_dropShadow_480_6540" result="shape" />
            </filter>
        </defs>
    </symbol>

    <symbol id="arrow-left" width="56" height="48" fill="none">
        <g filter="url(#a)">
            <rect width="40" height="48" x="4" y="40" fill="#fff" rx="8" transform="rotate(-90 4 40)" />
            <path fill="#2c2c2c"
                d="M17.45 20.905 31.383 34.18a1.25 1.25 0 0 0 1.725 0l.015-.015a1.15 1.15 0 0 0 0-1.667l-13.12-12.5 13.12-12.495a1.15 1.15 0 0 0 0-1.668l-.015-.015a1.25 1.25 0 0 0-1.725 0L17.45 19.095a1.25 1.25 0 0 0 0 1.81" />
        </g>
        <defs>
            <filter width="56" height="48" x="0" y="0" color-interpolation-filters="sRGB" filterUnits="userSpaceOnUse">
                <feFlood flood-opacity="0" result="BackgroundImageFix" />
                <feColorMatrix in="SourceAlpha" result="hardAlpha" values="0 0 0 0 0 0 0 0 0 0 0 0 0 0 0 0 0 0 127 0" />
                <feOffset dy="4" />
                <feGaussianBlur stdDeviation="2" />
                <feComposite in2="hardAlpha" operator="out" />
                <feColorMatrix values="0 0 0 0 0 0 0 0 0 0 0 0 0 0 0 0 0 0 0.16 0" />
                <feBlend in2="BackgroundImageFix" result="effect1_dropShadow_480_6550" />
                <feBlend in="SourceGraphic" in2="effect1_dropShadow_480_6550" result="shape" />
            </filter>
        </defs>
    </symbol>

    <symbol id="logo" width="66" height="52" fill="none">
        <path fill="#ffe550"
            d="M22.982 10.49c1.642-3.221 6.233-3.221 7.875 0l2.08 4.079a4.42 4.42 0 0 0 3.243 2.36l4.505.718c3.569.568 4.989 4.955 2.433 7.516l-3.214 3.222a4.44 4.44 0 0 0-1.242 3.828l.71 4.506c.563 3.575-3.152 6.285-6.37 4.645l-4.08-2.077a4.41 4.41 0 0 0-4.005 0l-4.08 2.077c-3.218 1.64-6.934-1.07-6.37-4.645l.71-4.506a4.44 4.44 0 0 0-1.242-3.828l-3.215-3.222c-2.555-2.561-1.135-6.948 2.433-7.516l4.505-.717a4.42 4.42 0 0 0 3.244-2.361z" />
        <path fill="#2c2c2c"
            d="m1.814 33.08-.034.008q.006.18-.018 1.463-.007 1.276-.004 1.677 0 .382-.016.624l.002.546a4 4 0 0 1-.032.481l-.03.335q-.033.318-.137.343-.224.052-.7-.345-.48-.416-.553-.726T.254 32.94q.051-4.24-.228-5.578a.68.68 0 0 1 .022-.442q.087-.404.894-.759.825-.359 2.46-.746 1.652-.39 2.623-.439.987-.052 1.06.26.051.207-.222.362t-.484.26l-.565.226q-.354.12-.655.228-.306.09-.793.26-.47.165-.871.316-.406.132-1.09.385-.686.255-.888.32.03.048.053.151.192.811.21 3.887 1.08-.201 2.278-.594 1.215-.396 1.49-.462.655-.155.72.121.126.535-1.286 1.252-1.395.713-3.168 1.133M13.053 29.91a3.3 3.3 0 0 0-.45-1.06q-.317-.49-.735-.647-1.11.61-1.612 2.332-.489 1.701-.175 3.03.314 1.33 1.046 1.502 1.182-.535 1.7-2.188.532-1.675.226-2.97m-4.491 1.227q.284-1.49 1.044-2.58.774-1.113 1.79-1.354 1.032-.243 1.929.473.893.7 1.19 1.96.294 1.243.002 2.697a6.14 6.14 0 0 1-1.16 2.553q-.85 1.095-2.038 1.375-.879.208-1.656-.464-.777-.673-1.07-1.916-.3-1.26-.031-2.744M20.854 28.063a3.3 3.3 0 0 0-.45-1.06q-.316-.49-.735-.646-1.11.609-1.612 2.331-.489 1.703-.174 3.03.314 1.33 1.045 1.503 1.184-.535 1.701-2.189.532-1.674.225-2.97m-4.491 1.227q.285-1.49 1.044-2.58.773-1.113 1.79-1.353 1.033-.245 1.93.473.891.7 1.19 1.96.294 1.242.001 2.697a6.14 6.14 0 0 1-1.16 2.552q-.85 1.095-2.038 1.376-.878.207-1.655-.465t-1.071-1.915q-.299-1.26-.031-2.745M28.989 17.936q.275-.066.794.359.532.402.637.851.107.45.174 2.656.063 2.19.025 4.569-.048 5.333-.444 5.427-.24.057-.603-.167-.35-.246-.402-.47t-.092-.926q-1.279 2.125-2.536 2.423-.757.18-1.54-.365-.766-.547-.941-1.29-.255-1.07-.032-2.671a9.1 9.1 0 0 1 1.034-3.088q.799-1.465 2.02-1.754 1.224-.29 2.052 1.063.014-3.866-.402-6.01-.123-.517.256-.607m.11 8.923q-.221-.933-.7-1.494-.46-.566-.908-.459-.74.175-1.298 1.273a7.6 7.6 0 0 0-.742 2.4q-.17 1.28.034 2.142a.64.64 0 0 0 .342.448.82.82 0 0 0 .578.063q.671-.159 1.58-1.394.924-1.24 1.131-2.674l.003-.22zM40.09 25.824q.333 1.415-.712 2.684-1.05 1.25-2.702 1.642-1.635.387-2.903-.206-1.272-.61-1.45-1.37-.124-.517.187-.591.275-.066 1.28.572.38.22.957.356.595.134 1.18-.006 1.206-.286 1.988-1.126.8-.846.629-1.57-.11-.467-.901-1.045a12 12 0 0 0-1.7-1.038 13 13 0 0 1-1.69-1.076q-.795-.594-.898-1.027a2.8 2.8 0 0 1-.044-.955q.059-.524.212-.797.495-.902 1.76-1.857 1.282-.96 2.247-1.188a1.2 1.2 0 0 1 .92.129q.423.246.508.608.042.173-.296.362-.336.189-1.036.537a8.5 8.5 0 0 0-1.202.685q-1.8 1.229-1.633 1.936.09.38 2.516 1.646a8.6 8.6 0 0 1 1.766 1.24q.845.73 1.016 1.455M44.044 26.692q.078.328.457.239.654-.156 1.498-.738.856-.604.96-.628.31-.073.388.254.117.501-.76 1.401-.861.897-1.704 1.096-.827.195-1.484-.122-.66-.336-.775-.82-.114-.482-.083-1.273.027-.81.116-2.124.102-1.336.134-2.2-.764.381-1.04.446-.275.066-.616-.146-.327-.232-.389-.49-.097-.415 2.051-1.325-.03-1.506-.29-2.61-.122-.517.222-.6.293-.069.813.21.516.26.626.726t.095 1.709q.96-.32 1.546-.457 1.034-.245 1.14.204.06.258-.467.566-.51.303-2.215 1.089-.039 1.45-.174 3.34-.139 1.874-.049 2.253M51.738 17.654q.774-.183 1.617.456.837.621.988 1.26.147.621-.128 1.38.267.209.313.399.114.483.167 1.71.072 1.222.105 1.597.052.37.07.603.015.215.012.435.033.447-.208.505-.309.072-.643-.413-.32-.508-.558-1.362-1.072 2.313-2.38 2.622-.792.187-1.726-.302-.921-.51-1.092-1.236-.245-1.035.154-2.734a10.3 10.3 0 0 1 1.318-3.191q.924-1.475 1.99-1.73m1.51 2.85q-.38-1.605-1.017-1.454-.67.16-1.338 1.337a9.6 9.6 0 0 0-1.005 2.516q-.334 1.355-.167 2.063a.6.6 0 0 0 .356.426q.28.116.608.038.81-.191 1.568-1.52.755-1.345.78-3.009-.01-.27.219-.38z" />
        <path fill="#bbf330"
            d="M49.983 32.456c-.492.122-.88.497-1.042.978-3.097 9.181-11.772 15.795-21.994 15.795-6.2 0-11.83-2.433-15.991-6.394a1.48 1.48 0 0 0-1.374-.378c-1.038.257-1.43 1.518-.66 2.262A25.87 25.87 0 0 0 26.947 52c11.501 0 21.256-7.484 24.671-17.852.335-1.018-.598-1.949-1.635-1.692M3.033 22.994a1.47 1.47 0 0 0 1.081-1.178C6.082 10.987 15.553 2.772 26.947 2.772c7.408 0 14.003 3.473 18.252 8.879.356.454.94.672 1.5.534.948-.235 1.376-1.34.777-2.114C42.724 3.943 35.296 0 26.946 0 14.14 0 3.498 9.28 1.365 21.49c-.168.962.723 1.738 1.67 1.504M66 8.664c-6.138 11.766-8.832 4.005-17.473 8.564C49.391 3.57 58.542 11.88 66 8.664" />
    </symbol>

</svg>